<?xml version="1.0" encoding="UTF-8" standalone="no"?>
<!-- Created with Inkscape (http://www.inkscape.org/) -->

<svg
   width="180mm"
   height="180mm"
   viewBox="0 0 180 180"
   version="1.1"
   id="svg1"
   xml:space="preserve"
   inkscape:version="1.3.2 (091e20ef0f, 2023-11-25, custom)"
   sodipodi:docname="tsmp.svg"
   xmlns:inkscape="http://www.inkscape.org/namespaces/inkscape"
   xmlns:sodipodi="http://sodipodi.sourceforge.net/DTD/sodipodi-0.dtd"
   xmlns="http://www.w3.org/2000/svg"
   xmlns:svg="http://www.w3.org/2000/svg"><sodipodi:namedview
     id="namedview1"
     pagecolor="#ffffff"
     bordercolor="#666666"
     borderopacity="1.0"
     inkscape:showpageshadow="2"
     inkscape:pageopacity="0.0"
     inkscape:pagecheckerboard="0"
     inkscape:deskcolor="#d1d1d1"
     inkscape:document-units="mm"
     showgrid="false"
     inkscape:zoom="0.25"
     inkscape:cx="718"
     inkscape:cy="426"
     inkscape:window-width="1641"
     inkscape:window-height="1378"
     inkscape:window-x="1786"
     inkscape:window-y="0"
     inkscape:window-maximized="0"
     inkscape:current-layer="layer1"><inkscape:grid
       id="grid1"
       units="px"
       originx="0"
       originy="0"
       spacingx="0.26458333"
       spacingy="0.26458334"
       empcolor="#0099e5"
       empopacity="0.30196078"
       color="#0099e5"
       opacity="0.14901961"
       empspacing="5"
       dotted="false"
       gridanglex="30"
       gridanglez="30"
       visible="false" /></sodipodi:namedview><defs
     id="defs1" /><g
     inkscape:label="Layer 1"
     inkscape:groupmode="layer"
     id="layer1"><g
       id="g2"
       transform="matrix(1.2121864,0,0,1.2121864,-34.529589,3.5850409)"><path
         id="path1"
         style="fill:#f0b06a;fill-opacity:1;stroke:#f0b06a;stroke-width:0.308003;stroke-dasharray:none;stroke-opacity:1"
         d="m 128.93747,25.473626 c 0.35526,0.382514 1.07684,-0.04236 1.1956,2.483238 0.14406,3.063839 -0.544,2.711341 -0.5478,2.324869 -0.0128,-1.303131 -1.05164,-2.989106 -1.18338,-3.616227 -0.14626,-0.6962 -0.43261,-0.987553 -1.11495,-1.14811 -0.51377,-0.120887 -1.44045,0.574596 -1.44045,1.080996 0,0.354456 0.82179,0.58076 1.17252,0.659738 0.49072,0.110502 1.65859,2.346277 1.37412,3.314345 -0.048,0.163333 -0.13036,0.287176 -0.22389,0.397116 -0.0705,-0.09128 -0.14809,-0.181863 -0.23159,-0.270581 -0.74378,-0.78923 -1.79453,-1.268583 -2.34689,-1.070649 -0.55227,0.197911 -0.39717,0.998006 0.34646,1.787157 0.28632,0.303191 0.63258,0.574111 0.98868,0.773541 -0.003,0.02141 -0.0128,0.03671 -0.0141,0.05942 -0.0444,0.819518 -0.21271,2.796627 -0.83,6.521112 -0.61729,3.724484 -0.69946,18.803642 -0.34882,30.134038 0.0264,0.851833 2.25521,1.13806 2.24417,0.0894 -0.20172,-19.123123 0.1098,-28.983365 0.52491,-31.19351 0.48902,-2.603681 0.86011,-3.853794 1.44237,-2.66803 2.84339,4.12046 5.41729,2.465005 4.63674,0.716508 -0.50513,-1.131528 -1.61242,-2.754063 -2.74824,-3.760006 -1.13585,-1.005944 -0.74814,-0.463679 -0.64781,-0.850471 0.15103,-0.582266 0.16011,-0.882096 0.0894,-2.942695 -0.0626,-1.824857 0.03,-2.59006 -0.0321,-3.257104 -0.0425,-0.456521 -0.56561,-1.083163 -1.36796,-0.719273 -0.61741,0.280009 -1.42602,0.628633 -1.0875,0.993121 z m 1.88638,6.881495 c 0.32489,-10e-7 0.85645,0.182741 0.86002,0.558669 0.005,0.459299 -0.53513,0.55867 -0.86002,0.558669 -0.32489,-2e-6 -0.58812,-0.250185 -0.58812,-0.558669 0,-0.308484 0.26323,-0.558666 0.58812,-0.558669 z m -21.85796,46.47218 c -0.30643,-0.0267 -1.04944,0.18981 -1.0679,0.6929 -0.0369,1.00616 0.026,7.97805 0,9.53795 -0.014,2.24641 -0.0735,8.72039 0,9.47297 0.0736,0.75258 2.04043,0.85553 2.13632,0 0.0959,-0.85553 -0.0735,-7.61394 0,-9.47297 0.0735,-1.85903 0.0381,-8.52485 0,-9.46447 -0.019,-0.46981 -0.76199,-0.73969 -1.06842,-0.76638 z m 13.82188,0.49686 c -0.30643,-0.0267 -1.04944,0.18982 -1.06789,0.69289 -0.0369,1.00618 0.026,7.97806 0,9.53796 -0.014,2.24642 -0.0735,8.72039 0,9.47297 0.0735,0.75258 2.04042,0.85553 2.13631,0 0.0959,-0.85553 -0.0735,-7.61394 0,-9.47297 0.0735,-1.85903 0.0381,-8.52485 0,-9.46447 -0.019,-0.46981 -0.76199,-0.73969 -1.06842,-0.76638 z m -2.61694,0.55521 c -0.57228,-0.0981 -2.31381,1.02915 -4.11282,1.07994 -2.39866,0.0677 -5.21765,-1.85135 -4.66327,-0.58175 0.5544,1.26959 2.82242,2.51883 4.66327,2.47263 1.84086,-0.0462 3.90126,-1.12909 4.25421,-2.37898 0.11022,-0.39028 0.0494,-0.55912 -0.14139,-0.59184 z"
         sodipodi:nodetypes="ssssssssccsccszccscssssssssssssssssssssssssssssscssssc" /><path
         id="path1-9"
         style="fill:#cbad60;fill-opacity:1;stroke:#f0b06a;stroke-width:1.95069;stroke-dasharray:none;stroke-opacity:1"
         d="m 114.85304,70.132131 c -3.15953,0.08961 -6.41882,0.975779 -8.87848,3.178523 -2.37502,2.643097 -3.21017,7.163867 -3.456,9.476147 -0.24583,2.31229 -0.43719,4.70781 -0.68918,7.96833 -0.39573,5.12019 -0.35404,9.564239 -0.33345,10.402219 0.0206,0.83799 1.74619,0.89042 1.76354,0 0.0174,-0.89042 0.58277,-14.025789 1.26616,-19.319699 0.67989,-5.26676 2.35864,-9.754491 11.1885,-9.857616 8.93561,0.0634 10.62409,4.569536 11.30707,9.860266 0.68339,5.29391 1.24881,18.429279 1.26616,19.319699 0.0173,0.89043 1.74296,0.83799 1.76354,0 0.0206,-0.83798 0.0623,-5.282029 -0.33345,-10.402219 -0.25199,-3.26051 -0.44335,-5.65604 -0.68918,-7.96832 -0.24583,-2.31229 -1.08098,-6.83306 -3.456,-9.476153 -2.45966,-2.202744 -5.71895,-3.08891 -8.87848,-3.178523 z"
         sodipodi:nodetypes="ccssssscsssssccc" /><path
         style="font-size:17.6389px;line-height:1.25;font-family:TSCu_Comic;-inkscape-font-specification:'TSCu_Comic, Normal';font-variant-ligatures:none;fill:#a7653c;fill-opacity:1;stroke-width:0.716825"
         d="m 167.2776,78.756756 c -1.25599,8.102536 -13.34016,11.116351 -20.47027,10.454405 -0.25626,6.045989 -0.0808,8.425635 -0.16375,11.011739 -0.0829,2.5861 -3.07812,0.90088 -3.09418,-0.726121 -0.079,-8.001787 0.19418,-19.364038 0.26827,-22.167806 0.0741,-2.803767 3.03764,-2.521783 2.98966,1.162719 -0.0243,1.865203 0.0609,3.98393 0,6.924096 3.15071,0.349665 6.07435,-0.09151 9.65899,-1.065177 4.47378,-1.225851 6.86453,-3.225086 7.17224,-5.997714 0.40214,-3.623547 -7.14914,-4.525147 -7.67248,-4.583226 -6.25065,-0.945784 -12.23563,0.971218 -18.25256,2.375887 -1.76849,-0.196266 -1.97774,-2.80801 0.15182,-3.523529 4.14665,-1.481168 17.95727,-4.911895 25.81446,-0.244905 2.69927,1.543479 3.89853,3.670021 3.59783,6.379636 z"
         id="text1-41"
         aria-label="TSMP"
         sodipodi:nodetypes="sczszsccsscccss" /><path
         d="m 65.19639,71.49336 c 0,1.172921 -0.713263,1.93374 -2.139791,2.28244 -0.475507,0.0951 -1.648431,0.206039 -3.518764,0.332859 -1.711831,0.0951 -3.740666,0.142646 -6.086511,0.142646 0,0 0.0014,-0.0488 -0.237766,3.376106 -0.239174,3.424904 -0.567713,14.806325 -0.819273,22.824419 -0.126821,0.60231 -0.364565,1.01442 -0.713262,1.23632 -0.443809,0.25362 -0.935169,0.38041 -1.474079,0.38041 -0.380406,0 -0.713262,-0.20605 -0.998568,-0.61817 -0.22189,-0.4438 -0.332856,-0.90346 -0.332856,-1.37897 0.709088,-10.82684 0.422383,-15.165892 0.914376,-25.534811 -3.011556,0 -5.008693,0.06338 -5.991412,0.190217 l -3.756518,0.475515 c -0.63401,0 -1.109521,-0.19022 -1.426525,-0.570621 -0.317007,-0.380404 -0.47551,-0.72912 -0.47551,-1.046117 v -0.0951 c 0,-0.380409 0.142643,-0.792506 0.427957,-1.236323 0.348708,-0.412104 0.808366,-0.634005 1.378977,-0.665709 l 23.53768,-1.711828 c 0.44381,-0.03173 0.840068,0.0951 1.188773,0.380409 0.285306,0.317007 0.459659,0.729109 0.523061,1.236318 z"
         style="font-size:17.6389px;line-height:1.25;font-family:TSCu_Comic;-inkscape-font-specification:'TSCu_Comic, Normal';font-variant-ligatures:none;fill:#a7653c;fill-opacity:1;stroke-width:0.716825"
         id="path1-93"
         sodipodi:nodetypes="cccczccscccccssscccccc" /><path
         d="m 94.02912,73.773418 c 0,1.014423 -0.618156,1.585033 -1.85448,1.711833 l -3.708976,-1.236317 c -1.33142,-0.443812 -2.631143,-0.665713 -3.899169,-0.665713 -1.680125,0 -3.122505,0.316997 -4.327118,0.951011 -1.521628,0.760819 -2.282442,1.902039 -2.282442,3.423669 0,1.33142 1.188764,2.5202 3.566309,3.56631 3.74067,1.68013 5.959706,2.75795 6.657117,3.23345 2.440948,1.80694 3.66142,4.16863 3.66142,7.08509 0,3.64557 -1.315573,6.32426 -3.946723,8.0361 -2.155638,1.394819 -4.897735,2.092229 -8.226295,2.092229 -1.997137,0 -4.010124,-0.42795 -6.038962,-1.28387 -2.28244,-0.982709 -3.423662,-2.155639 -3.423662,-3.518759 0,-0.44381 0.158492,-0.84007 0.475509,-1.18878 0.348709,-0.3487 0.744964,-0.52306 1.188773,-0.52306 0.03169,0 0.951019,0.45966 2.75795,1.37898 1.83863,0.91932 3.582163,1.37898 5.230598,1.37898 2.345842,0 4.247868,-0.45966 5.7061,-1.37898 1.74353,-1.07782 2.615292,-2.7104 2.615292,-4.89774 0,-2.40925 -1.188768,-4.13693 -3.56631,-5.18305 l -6.657116,-2.85305 c -2.409249,-1.39482 -3.613868,-3.43951 -3.613868,-6.13406 0,-2.37754 1.046118,-4.311274 3.138358,-5.801197 1.87033,-1.33143 4.200326,-1.997137 6.989969,-1.997137 1.997143,0 4.105228,0.364557 6.324266,1.093661 2.15564,0.697417 3.23346,1.600881 3.23346,2.7104 z"
         style="font-size:17.6389px;line-height:1.25;font-family:TSCu_Comic;-inkscape-font-specification:'TSCu_Comic, Normal';font-variant-ligatures:none;fill:#a7653c;fill-opacity:1;stroke-width:0.716825"
         id="path1-6" /></g></g></svg>
